<svg xmlns="http://www.w3.org/2000/svg" width="959.734" height="338.193" viewBox="0 0 959.734 338.193">
  <g id="Group_53" data-name="Group 53" transform="translate(0 -12.985)">
    <g id="Group_51" data-name="Group 51" transform="translate(471.097 14.69)">
      <path id="Path_6846" data-name="Path 6846" d="M1600.446,1532.271a225.082,225.082,0,0,1-31.187,118.082c-2.29,3.806-4.852,7.331-7.361,10.99a74.3,74.3,0,0,1-57.741,34.215c-36.287,2.489-58.848-14.07-73.281-44.873-18.155-38.733-13.479-77.761-1.41-116.121a399.023,399.023,0,0,0,7.444,55.271c7.257,26.677,29.26,51.529,58.786,48.843a58.177,58.177,0,0,0,39.627-25.193c28.213-34.775,31.79-98.5,5.693-135.823-18.6-26.615-50.565-33.563-74.983-12.441a803.539,803.539,0,0,0-62.352,63.7c-16.3,17.626-31.032,36.675-47.2,54.426-23.41,25.72-46.656,51.723-71.54,76.029-27.61,26.956-57.583,53.57-94.94,65.855a84.912,84.912,0,0,1-46.448,3.111,88.189,88.189,0,0,1-31.716-14.909c11.209-5.661,24.085-8.628,35.5-14.337a195.16,195.16,0,0,0,32.242-20.208,409.07,409.07,0,0,0,53.147-51.624q3.732-4.148,7.436-8.295c17.045-19.18,33.551-38.839,50.711-57.917,31.942-35.52,63.244-71.653,96.628-105.824a206.075,206.075,0,0,1,85.651-56.363,79.048,79.048,0,0,1,82.489,16.641,130.489,130.489,0,0,1,32.9,48.835,163.713,163.713,0,0,1,7.912,28.344A228.769,228.769,0,0,1,1600.446,1532.271Z" transform="translate(-1111.839 -1393.733)" fill="#f5f5f5"/>
    </g>
    <g id="Group_51-2" data-name="Group 51-2" transform="translate(148.005 12.985)">
      <path id="Path_6848" data-name="Path 6848" d="M1317.647,1413.228c-145.255-115.479-294.63,290.942-421.048,306.763C1034.165,1799.41,1207.479,1393.4,1317.647,1413.228Z" transform="translate(-896.6 -1392.593)" fill="#f5f5f5"/>
      <path id="Path_6849" data-name="Path 6849" d="M1021.245,1703.839c137.564,75.5,310.878-310.482,421.06-291.63C1297.037,1302.408,1147.631,1688.807,1021.245,1703.839Z" transform="translate(-834.142 -1392.597)" fill="#f5f5f5"/>
    </g>
    <g id="Group_52" data-name="Group 52" transform="translate(0 12.999)">
      <path id="Path_6850" data-name="Path 6850" d="M899.36,1646.119h0c-34.974,40.03-68.917,69.786-101.36,73.852,88.462,51.092,191.553-98.259,283.186-206.328h0c50.99-60.134,98.423-107.494,137.812-100.415C1111,1327.371,1000.8,1530.027,899.36,1646.119Z" transform="translate(-798 -1392.606)" fill="#f5f5f5"/>
    </g>
  </g>
</svg>
